<mxfile host="app.diagrams.net" modified="2021-08-05T08:24:07.095Z" agent="5.0 (Windows NT 10.0; Win64; x64) AppleWebKit/537.36 (KHTML, like Gecko) Chrome/90.0.4430.229 Whale/2.10.123.37 Safari/537.36" etag="VpnZ89ZZcxAGrqq4S-4u" version="14.9.4" type="github">
  <diagram id="sEROPakHyFahvjbdkEml" name="Page-1">
    <mxGraphModel dx="1162" dy="640" grid="1" gridSize="10" guides="1" tooltips="1" connect="1" arrows="1" fold="1" page="1" pageScale="1" pageWidth="1100" pageHeight="850" math="0" shadow="0">
      <root>
        <mxCell id="0" />
        <mxCell id="1" parent="0" />
        <mxCell id="N1FK3utdlKtRkK0WbqIv-13" value="f_auth file open" style="rounded=0;whiteSpace=wrap;html=1;" vertex="1" parent="1">
          <mxGeometry x="80" y="180" width="120" height="60" as="geometry" />
        </mxCell>
        <mxCell id="N1FK3utdlKtRkK0WbqIv-14" value="args.filename" style="rhombus;whiteSpace=wrap;html=1;" vertex="1" parent="1">
          <mxGeometry x="80" y="100" width="120" height="60" as="geometry" />
        </mxCell>
        <mxCell id="N1FK3utdlKtRkK0WbqIv-21" value="" style="endArrow=classic;html=1;exitX=0.5;exitY=1;exitDx=0;exitDy=0;entryX=0.5;entryY=0;entryDx=0;entryDy=0;" edge="1" parent="1" source="N1FK3utdlKtRkK0WbqIv-14" target="N1FK3utdlKtRkK0WbqIv-13">
          <mxGeometry width="50" height="50" relative="1" as="geometry">
            <mxPoint x="480" y="250" as="sourcePoint" />
            <mxPoint x="140" y="190" as="targetPoint" />
          </mxGeometry>
        </mxCell>
        <mxCell id="N1FK3utdlKtRkK0WbqIv-22" value="main()" style="rounded=1;whiteSpace=wrap;html=1;" vertex="1" parent="1">
          <mxGeometry x="80" y="20" width="120" height="60" as="geometry" />
        </mxCell>
        <mxCell id="N1FK3utdlKtRkK0WbqIv-24" value="args.uri" style="rhombus;whiteSpace=wrap;html=1;" vertex="1" parent="1">
          <mxGeometry x="80" y="260" width="120" height="60" as="geometry" />
        </mxCell>
        <mxCell id="N1FK3utdlKtRkK0WbqIv-26" value="reqToken()" style="rounded=1;whiteSpace=wrap;html=1;" vertex="1" parent="1">
          <mxGeometry x="80" y="340" width="120" height="60" as="geometry" />
        </mxCell>
        <mxCell id="N1FK3utdlKtRkK0WbqIv-27" value="args.model" style="rhombus;whiteSpace=wrap;html=1;" vertex="1" parent="1">
          <mxGeometry x="80" y="425" width="120" height="60" as="geometry" />
        </mxCell>
        <mxCell id="N1FK3utdlKtRkK0WbqIv-28" value="args.project" style="rhombus;whiteSpace=wrap;html=1;" vertex="1" parent="1">
          <mxGeometry x="80" y="500" width="120" height="60" as="geometry" />
        </mxCell>
        <mxCell id="N1FK3utdlKtRkK0WbqIv-29" value="args.filename" style="rhombus;whiteSpace=wrap;html=1;" vertex="1" parent="1">
          <mxGeometry x="80" y="580" width="120" height="60" as="geometry" />
        </mxCell>
        <mxCell id="N1FK3utdlKtRkK0WbqIv-32" value="uri 완성" style="rounded=0;whiteSpace=wrap;html=1;" vertex="1" parent="1">
          <mxGeometry x="80" y="670" width="120" height="60" as="geometry" />
        </mxCell>
        <mxCell id="N1FK3utdlKtRkK0WbqIv-33" value="" style="endArrow=classic;html=1;entryX=0.5;entryY=0;entryDx=0;entryDy=0;" edge="1" parent="1" target="N1FK3utdlKtRkK0WbqIv-24">
          <mxGeometry width="50" height="50" relative="1" as="geometry">
            <mxPoint x="140" y="240" as="sourcePoint" />
            <mxPoint x="150" y="190" as="targetPoint" />
          </mxGeometry>
        </mxCell>
        <mxCell id="N1FK3utdlKtRkK0WbqIv-34" value="" style="endArrow=classic;html=1;entryX=0.5;entryY=0;entryDx=0;entryDy=0;" edge="1" parent="1" target="N1FK3utdlKtRkK0WbqIv-26">
          <mxGeometry width="50" height="50" relative="1" as="geometry">
            <mxPoint x="140" y="320" as="sourcePoint" />
            <mxPoint x="160" y="200" as="targetPoint" />
          </mxGeometry>
        </mxCell>
        <mxCell id="N1FK3utdlKtRkK0WbqIv-35" value="" style="endArrow=classic;html=1;exitX=0.5;exitY=1;exitDx=0;exitDy=0;entryX=0.5;entryY=0;entryDx=0;entryDy=0;" edge="1" parent="1" source="N1FK3utdlKtRkK0WbqIv-26" target="N1FK3utdlKtRkK0WbqIv-27">
          <mxGeometry width="50" height="50" relative="1" as="geometry">
            <mxPoint x="170" y="190" as="sourcePoint" />
            <mxPoint x="170" y="210" as="targetPoint" />
          </mxGeometry>
        </mxCell>
        <mxCell id="N1FK3utdlKtRkK0WbqIv-36" value="" style="endArrow=classic;html=1;entryX=0.5;entryY=0;entryDx=0;entryDy=0;" edge="1" parent="1" target="N1FK3utdlKtRkK0WbqIv-28">
          <mxGeometry width="50" height="50" relative="1" as="geometry">
            <mxPoint x="140" y="480" as="sourcePoint" />
            <mxPoint x="180" y="220" as="targetPoint" />
          </mxGeometry>
        </mxCell>
        <mxCell id="N1FK3utdlKtRkK0WbqIv-37" value="" style="endArrow=classic;html=1;exitX=0.5;exitY=1;exitDx=0;exitDy=0;entryX=0.5;entryY=0;entryDx=0;entryDy=0;" edge="1" parent="1" source="N1FK3utdlKtRkK0WbqIv-28" target="N1FK3utdlKtRkK0WbqIv-29">
          <mxGeometry width="50" height="50" relative="1" as="geometry">
            <mxPoint x="190" y="210" as="sourcePoint" />
            <mxPoint x="150" y="590" as="targetPoint" />
          </mxGeometry>
        </mxCell>
        <mxCell id="N1FK3utdlKtRkK0WbqIv-38" value="" style="endArrow=classic;html=1;exitX=0.5;exitY=1;exitDx=0;exitDy=0;entryX=0.5;entryY=0;entryDx=0;entryDy=0;" edge="1" parent="1" source="N1FK3utdlKtRkK0WbqIv-29" target="N1FK3utdlKtRkK0WbqIv-32">
          <mxGeometry width="50" height="50" relative="1" as="geometry">
            <mxPoint x="200" y="220" as="sourcePoint" />
            <mxPoint x="200" y="240" as="targetPoint" />
          </mxGeometry>
        </mxCell>
        <mxCell id="N1FK3utdlKtRkK0WbqIv-39" value="" style="rounded=0;whiteSpace=wrap;html=1;" vertex="1" parent="1">
          <mxGeometry x="610" y="20" width="120" height="60" as="geometry" />
        </mxCell>
        <mxCell id="N1FK3utdlKtRkK0WbqIv-40" value="" style="endArrow=classic;html=1;exitX=1;exitY=0.5;exitDx=0;exitDy=0;entryX=0;entryY=0.5;entryDx=0;entryDy=0;" edge="1" parent="1" source="N1FK3utdlKtRkK0WbqIv-32" target="N1FK3utdlKtRkK0WbqIv-39">
          <mxGeometry width="50" height="50" relative="1" as="geometry">
            <mxPoint x="440" y="600" as="sourcePoint" />
            <mxPoint x="370" y="50" as="targetPoint" />
            <Array as="points">
              <mxPoint x="530" y="700" />
              <mxPoint x="530" y="50" />
            </Array>
          </mxGeometry>
        </mxCell>
        <mxCell id="N1FK3utdlKtRkK0WbqIv-42" value="filename 형식 체크" style="text;html=1;strokeColor=none;fillColor=none;align=center;verticalAlign=middle;whiteSpace=wrap;rounded=0;" vertex="1" parent="1">
          <mxGeometry x="220" y="120" width="140" height="20" as="geometry" />
        </mxCell>
        <mxCell id="N1FK3utdlKtRkK0WbqIv-43" value="zeroth client yaml file open" style="text;html=1;strokeColor=none;fillColor=none;align=center;verticalAlign=middle;whiteSpace=wrap;rounded=0;" vertex="1" parent="1">
          <mxGeometry x="220" y="200" width="160" height="20" as="geometry" />
        </mxCell>
        <mxCell id="N1FK3utdlKtRkK0WbqIv-44" value="uri single_mode check" style="text;html=1;strokeColor=none;fillColor=none;align=center;verticalAlign=middle;whiteSpace=wrap;rounded=0;" vertex="1" parent="1">
          <mxGeometry x="220" y="280" width="160" height="20" as="geometry" />
        </mxCell>
        <mxCell id="N1FK3utdlKtRkK0WbqIv-45" value="--model 옵션 체크" style="text;html=1;strokeColor=none;fillColor=none;align=center;verticalAlign=middle;whiteSpace=wrap;rounded=0;" vertex="1" parent="1">
          <mxGeometry x="230" y="445" width="130" height="20" as="geometry" />
        </mxCell>
        <mxCell id="N1FK3utdlKtRkK0WbqIv-46" value="" style="endArrow=classic;html=1;exitX=0.5;exitY=1;exitDx=0;exitDy=0;" edge="1" parent="1" source="N1FK3utdlKtRkK0WbqIv-22" target="N1FK3utdlKtRkK0WbqIv-14">
          <mxGeometry width="50" height="50" relative="1" as="geometry">
            <mxPoint x="440" y="220" as="sourcePoint" />
            <mxPoint x="260" y="100" as="targetPoint" />
          </mxGeometry>
        </mxCell>
        <mxCell id="N1FK3utdlKtRkK0WbqIv-47" value="--project 옵션 체크" style="text;html=1;strokeColor=none;fillColor=none;align=center;verticalAlign=middle;whiteSpace=wrap;rounded=0;" vertex="1" parent="1">
          <mxGeometry x="240" y="510" width="120" height="20" as="geometry" />
        </mxCell>
      </root>
    </mxGraphModel>
  </diagram>
</mxfile>
